<!-- icon666.com - MILLIONS OF FREE VECTOR ICONS --><svg id="Capa_1" enable-background="new 0 0 512 512" viewBox="0 0 512 512" xmlns="http://www.w3.org/2000/svg"><g><path d="m467 504.5h30v-437h-180z" fill="#c5f3ff"></path><path d="m150 504.5h317v-30l-317-69.5z" fill="#e5faff"></path><path d="m437 474.5h30v-437h-180z" fill="#14cfff"></path><path d="m120 375h317v99.5h-317z" fill="#5addff"></path><path d="m90 375h-75c0 24.853 20.147 45 45 45h332v-175z" fill="#a0ecff"></path><path d="m407 7.5-30 30v379.929c4.693 1.659 9.739 2.571 15 2.571 24.853 0 45-20.147 45-45v-367.5z" fill="#c5f3ff"></path><path d="m90 7.5v367.5h257c0 19.592 12.524 36.25 30 42.429 17.476-6.179 30-22.837 30-42.429v-367.5z" fill="#e5faff"></path><path d="m278.5 281.25h98.5v30h-98.5z" fill="#fff"></path><path d="m348.812 189.022-59.323-102.75c-5.185-8.976-14.878-15.022-25.989-15.022-5.467 0-10.587 1.469-15 4.026l39.678 158.724h34.645c16.569 0 30-13.431 30-30 0-5.457-1.465-10.57-4.011-14.978z" fill="#ffb464" style="fill: rgb(223, 117, 0);"></path><path d="m314.159 189-65.659-113.724c-4.555 2.639-8.356 6.436-10.989 10.996l-59.323 102.75c-2.547 4.409-4.011 9.521-4.011 14.978 0 16.569 13.431 30 30 30h84c23.095 0 37.529-25 25.982-45z" fill="#ffd06a" style="fill: rgb(255, 128, 0);"></path><path d="m497 60h-22.5v-22.5c0-4.142-3.358-7.5-7.5-7.5h-22.5v-22.5c0-4.142-3.358-7.5-7.5-7.5h-347c-4.142 0-7.5 3.358-7.5 7.5v307.186c0 4.107 3.164 7.688 7.269 7.811 4.247.128 7.731-3.277 7.731-7.497v-300h332v359.29c0 21.012-16.967 38.471-37.977 38.207-20.469-.257-37.039-16.995-37.023-37.527.003-4.148-3.46-7.47-7.608-7.47h-249.392v-22.186c0-4.107-3.164-7.688-7.269-7.811-4.247-.128-7.731 3.277-7.731 7.497v22.5h-67.5c-4.11 0-7.494 3.312-7.5 7.421-.043 28.984 23.525 52.579 52.5 52.579h52.5v47c0 4.142 3.358 7.5 7.5 7.5h22.5v22.5c0 4.142 3.358 7.5 7.5 7.5h347c4.142 0 7.5-3.358 7.5-7.5v-437c0-4.142-3.358-7.5-7.5-7.5zm-473.747 322.5h316.781c1.677 11.673 7.208 22.118 15.259 30h-295.293c-18.109 0-33.262-12.904-36.747-30zm466.247 114.5h-332v-15h309.5c4.142 0 7.5-3.358 7.5-7.5v-346.686c0-4.107-3.165-7.688-7.27-7.811-4.247-.127-7.73 3.278-7.73 7.497v339.5h-332v-39.5h264.5c28.995 0 52.5-23.505 52.5-52.5v-330h15v52.186c0 4.107 3.165 7.688 7.27 7.811 4.247.127 7.73-3.278 7.73-7.497v-22.5h15z" fill="#000000"></path><path d="m271 281.25v30c0 4.143 3.357 7.5 7.5 7.5h98.5c4.143 0 7.5-3.357 7.5-7.5v-30c0-4.143-3.357-7.5-7.5-7.5h-98.5c-4.143 0-7.5 3.357-7.5 7.5zm15 7.5h83.5v15h-83.5z" fill="#000000"></path><path d="m295.983 82.521c-6.686-11.579-19.133-18.771-32.483-18.771s-25.796 7.192-32.484 18.771l-59.322 102.749c-3.282 5.682-5.017 12.158-5.017 18.729 0 20.678 16.822 37.5 37.5 37.5h118.645c20.678 0 37.5-16.822 37.5-37.5 0-6.572-1.734-13.049-5.017-18.729.002.001-59.322-102.749-59.322-102.749zm26.839 143.979h-118.645c-12.407 0-22.5-10.094-22.5-22.5 0-3.94 1.04-7.823 3.006-11.229l59.322-102.749c4.016-6.953 11.486-11.272 19.494-11.272 8.009 0 15.479 4.319 19.494 11.271l59.322 102.75c1.967 3.405 3.006 7.287 3.006 11.229.001 12.406-10.092 22.5-22.499 22.5z" fill="#000000"></path><circle cx="263.5" cy="189" r="7.5" fill="#000000"></circle><path d="m263.5 123.757c-4.143 0-7.5 3.357-7.5 7.5v27.743c0 4.143 3.357 7.5 7.5 7.5s7.5-3.357 7.5-7.5v-27.743c0-4.143-3.357-7.5-7.5-7.5z" fill="#000000"></path><path d="m142.5 281.25c0 4.143 3.358 7.5 7.5 7.5h98.5c4.142 0 7.5-3.357 7.5-7.5s-3.358-7.5-7.5-7.5h-98.5c-4.142 0-7.5 3.357-7.5 7.5z" fill="#000000"></path><path d="m150 318.75h98.5c4.142 0 7.5-3.357 7.5-7.5s-3.358-7.5-7.5-7.5h-98.5c-4.142 0-7.5 3.357-7.5 7.5s3.358 7.5 7.5 7.5z" fill="#000000"></path></g></svg>